<?xml version="1.0" encoding="UTF-8" standalone="no"?>
<!DOCTYPE svg PUBLIC "-//W3C//DTD SVG 1.1//EN" "http://www.w3.org/Graphics/SVG/1.1/DTD/svg11.dtd">
<svg version="1.1" xmlns="http://www.w3.org/2000/svg" xmlns:xlink="http://www.w3.org/1999/xlink" preserveAspectRatio="xMidYMid meet" viewBox="0 0 640 640" width="640" height="640"><defs><path d="M599.17 400C594.56 400 571.5 400 530 400C530 412 530 418.67 530 420C530 447.33 523.9 473.23 513 496.43C520.53 503.96 580.76 564.19 588.29 571.72C603.91 587.34 603.91 612.66 588.29 628.29C572.66 643.91 547.34 643.91 531.71 628.29C524.87 621.44 470.14 566.71 463.29 559.87C432.36 584.96 392.94 600 350 600C350 569.5 350 325.5 350 295C350 286.72 343.28 280 335 280C332 280 308 280 305 280C296.72 280 290 286.72 290 295C290 325.5 290 569.5 290 600C247.06 600 207.64 584.96 176.71 559.87C169.86 566.71 115.13 621.44 108.29 628.29C92.66 643.91 67.34 643.91 51.72 628.29C36.1 612.66 36.1 587.34 51.72 571.72C59.24 564.19 119.47 503.96 127 496.43C116.1 473.23 110 447.33 110 420C110 418.67 110 412 110 400C68.5 400 45.44 400 40.83 400C19.04 400 0.61 382.91 0.02 361.13C-0.6 338.52 17.54 320 40 320C44.67 320 68 320 110 320L110 246.57C75.03 211.6 55.6 192.17 51.72 188.28C36.1 172.66 36.1 147.34 51.72 131.72C67.34 116.09 92.66 116.09 108.29 131.72C112.84 136.27 135.6 159.03 176.57 200L463.43 200C504.4 159.03 527.16 136.27 531.71 131.72C547.34 116.09 572.66 116.09 588.28 131.72C603.9 147.34 603.9 172.66 588.28 188.28C584.4 192.17 564.97 211.6 530 246.57L530 320C572 320 595.33 320 600 320C622.46 320 640.61 338.52 639.99 361.13C639.39 382.91 620.96 400 599.17 400ZM181.25 140C209.25 140 433.25 140 461.25 140C461.25 62.68 398.57 0 321.25 0C243.93 0 181.25 62.68 181.25 140Z" id="j2aZk7e36a"></path><path d="M599.17 400C594.56 400 571.5 400 530 400C530 412 530 418.67 530 420C530 447.33 523.9 473.23 513 496.43C520.53 503.96 580.76 564.19 588.29 571.72C603.91 587.34 603.91 612.66 588.29 628.29C572.66 643.91 547.34 643.91 531.71 628.29C524.87 621.44 470.14 566.71 463.29 559.87C432.36 584.96 392.94 600 350 600C350 569.5 350 325.5 350 295C350 286.72 343.28 280 335 280C332 280 308 280 305 280C296.72 280 290 286.72 290 295C290 325.5 290 569.5 290 600C247.06 600 207.64 584.96 176.71 559.87C169.86 566.71 115.13 621.44 108.29 628.29C92.66 643.91 67.34 643.91 51.72 628.29C36.1 612.66 36.1 587.34 51.72 571.72C59.24 564.19 119.47 503.96 127 496.43C116.1 473.23 110 447.33 110 420C110 418.67 110 412 110 400C68.5 400 45.44 400 40.83 400C19.04 400 0.61 382.91 0.02 361.13C-0.6 338.52 17.54 320 40 320C44.67 320 68 320 110 320L110 246.57C75.03 211.6 55.6 192.17 51.72 188.28C36.1 172.66 36.1 147.34 51.72 131.72C67.34 116.09 92.66 116.09 108.29 131.72C112.84 136.27 135.6 159.03 176.57 200L463.43 200C504.4 159.03 527.16 136.27 531.71 131.72C547.34 116.09 572.66 116.09 588.28 131.72C603.9 147.34 603.9 172.66 588.28 188.28C584.4 192.17 564.97 211.6 530 246.57L530 320C572 320 595.33 320 600 320C622.46 320 640.61 338.52 639.99 361.13C639.39 382.91 620.96 400 599.17 400ZM181.25 140C209.25 140 433.25 140 461.25 140C461.25 62.68 398.57 0 321.25 0C243.93 0 181.25 62.68 181.25 140Z" id="bp615zG5N"></path></defs><g><g><g><use xlink:href="#j2aZk7e36a" opacity="1" fill="#000000" fill-opacity="0"></use><g><use xlink:href="#j2aZk7e36a" opacity="1" fill-opacity="0" stroke="#000000" stroke-width="1" stroke-opacity="0"></use></g></g><g><use xlink:href="#bp615zG5N" opacity="1" fill="#ffffff" fill-opacity="1"></use><g><use xlink:href="#bp615zG5N" opacity="1" fill-opacity="0" stroke="#000000" stroke-width="1" stroke-opacity="0"></use></g></g></g></g></svg>