<?xml version="1.0" encoding="UTF-8" standalone="no"?>
<!DOCTYPE svg PUBLIC "-//W3C//DTD SVG 1.1//EN" "http://www.w3.org/Graphics/SVG/1.1/DTD/svg11.dtd">
<svg version="1.1" xmlns="http://www.w3.org/2000/svg" xmlns:xlink="http://www.w3.org/1999/xlink" preserveAspectRatio="xMidYMid meet" viewBox="0 0 640 640" width="640" height="640"><defs><path d="M449.12 246.91C449.12 240.3 449.12 236.62 449.12 235.89C471.08 219.62 485.35 193.52 485.35 164.15C485.35 120.64 454.04 84.3 412.77 76.48C400.77 32.18 360.35 0 312.6 0C286.17 0 260.81 10.22 241.74 28C234.93 26.22 227.89 25.3 220.82 25.3C187.17 25.3 157.82 45.72 145.03 75.07C143.29 74.97 141.54 74.92 139.78 74.92C90.58 74.92 50.55 114.95 50.55 164.15C50.55 191.24 62.7 215.53 81.82 231.91C81.82 268.81 81.82 564.05 81.82 600.95C81.82 622.43 99.39 640 120.87 640C149.79 640 381.15 640 410.07 640C431.54 640 449.12 622.43 449.12 600.95C449.12 597.13 449.12 578.04 449.12 543.68C489.58 543.68 512.06 543.68 516.56 543.68C556.75 543.68 589.45 510.98 589.45 470.79C589.45 455.69 589.45 334.9 589.45 319.8C589.45 279.61 556.75 246.91 516.56 246.91C507.57 246.91 485.09 246.91 449.12 246.91ZM167.64 203.92C167.64 251.6 167.64 278.09 167.64 283.38C167.64 297.04 156.57 308.11 142.91 308.11C129.25 308.11 118.18 297.04 118.18 283.38C118.18 274.8 118.18 206.1 118.18 197.51C107.26 190.42 100.01 178.12 100.01 164.15C100.01 142.22 117.85 124.38 139.78 124.38C144.72 124.38 149.55 125.28 154.14 127.06C161.47 129.91 169.73 129.09 176.36 124.87C183 120.64 187.23 113.5 187.75 105.65C188.91 88.33 203.43 74.77 220.82 74.77C226.49 74.77 231.86 76.15 236.79 78.86C247.69 84.88 261.36 81.85 268.71 71.8C279.08 57.6 295.08 49.46 312.6 49.46C341.6 49.46 365.43 72.12 366.86 101.05C367.18 107.68 370.17 113.91 375.14 118.32C380.11 122.74 386.65 124.97 393.28 124.5C394.43 124.42 395.34 124.38 396.12 124.38C418.05 124.38 435.89 142.22 435.89 164.15C435.89 186.08 418.05 203.92 396.12 203.92C365.66 203.92 289.5 203.92 167.64 203.92ZM516.56 476C512.06 476 489.58 476 449.12 476L449.12 314.6C489.58 314.6 512.06 314.6 516.56 314.6C519.33 314.6 521.77 317.03 521.77 319.8C521.77 329.87 521.77 380.2 521.77 470.79C520.14 474.26 518.41 476 516.56 476Z" id="q2Yz18fZZl"></path></defs><g><g><g><use xlink:href="#q2Yz18fZZl" opacity="1" fill="#ffffff" fill-opacity="1"></use><g><use xlink:href="#q2Yz18fZZl" opacity="1" fill-opacity="0" stroke="#000000" stroke-width="1" stroke-opacity="0"></use></g></g></g></g></svg>