<?xml version="1.0" encoding="UTF-8" standalone="no"?>
<!DOCTYPE svg PUBLIC "-//W3C//DTD SVG 1.1//EN" "http://www.w3.org/Graphics/SVG/1.1/DTD/svg11.dtd">
<svg version="1.1" xmlns="http://www.w3.org/2000/svg" xmlns:xlink="http://www.w3.org/1999/xlink" preserveAspectRatio="xMidYMid meet" viewBox="0 0 640 640" width="640" height="640"><defs><path d="M63.64 531.31C54.27 540.69 39.07 540.69 29.7 531.31C27.43 529.05 9.3 510.91 7.03 508.65C-2.33 499.29 -2.35 484.13 6.99 474.75C17.26 464.43 68.6 412.85 161.01 320C68.6 227.15 17.26 175.57 6.99 165.26C-2.35 155.88 -2.33 140.71 7.03 131.35C9.3 129.09 27.43 110.95 29.7 108.69C39.07 99.31 54.27 99.31 63.64 108.69C83.07 128.12 238.55 283.6 257.98 303.03C267.35 312.4 267.35 327.6 257.98 336.97C219.11 375.84 83.07 511.88 63.64 531.31ZM640 488C640 474.75 629.26 464 616 464C585.6 464 342.4 464 312 464C298.75 464 288 474.75 288 488C288 491.2 288 516.8 288 520C288 533.26 298.75 544 312 544C342.4 544 585.6 544 616 544C629.26 544 640 533.26 640 520C640 513.6 640 491.2 640 488Z" id="bOvlXrVHd"></path></defs><g><g><g><use xlink:href="#bOvlXrVHd" opacity="1" fill="#ffffff" fill-opacity="1"></use><g><use xlink:href="#bOvlXrVHd" opacity="1" fill-opacity="0" stroke="#000000" stroke-width="1" stroke-opacity="0"></use></g></g></g></g></svg>