<?xml version="1.0" encoding="UTF-8" standalone="no"?>
<!DOCTYPE svg PUBLIC "-//W3C//DTD SVG 1.1//EN" "http://www.w3.org/Graphics/SVG/1.1/DTD/svg11.dtd">
<svg version="1.1" xmlns="http://www.w3.org/2000/svg" xmlns:xlink="http://www.w3.org/1999/xlink" preserveAspectRatio="xMidYMid meet" viewBox="0 0 640 640" width="640" height="640"><defs><path d="M580 165C591.05 165 600 156.05 600 145C600 140 600 100 600 95C600 83.95 591.05 75 580 75C528 75 112 75 60 75C48.95 75 40 83.95 40 95C40 100 40 140 40 145C40 156.05 48.95 165 60 165C164 165 528 165 580 165ZM580 365C591.05 365 600 356.05 600 345C600 340 600 300 600 295C600 283.95 591.05 275 580 275C528 275 112 275 60 275C48.95 275 40 283.95 40 295C40 300 40 340 40 345C40 356.05 48.95 365 60 365C164 365 528 365 580 365ZM580 565C591.05 565 600 556.05 600 545C600 540 600 500 600 495C600 483.95 591.05 475 580 475C528 475 112 475 60 475C48.95 475 40 483.95 40 495C40 500 40 540 40 545C40 556.05 48.95 565 60 565C164 565 528 565 580 565Z" id="b2tAB5o4DT"></path></defs><g><g><g><use xlink:href="#b2tAB5o4DT" opacity="1" fill="#ffffff" fill-opacity="1"></use><g><use xlink:href="#b2tAB5o4DT" opacity="1" fill-opacity="0" stroke="#000000" stroke-width="1" stroke-opacity="0"></use></g></g></g></g></svg>